<svg xmlns="http://www.w3.org/2000/svg" viewBox="0 0 1200 630">
  <defs>
    <linearGradient id="bgSPL" x1="0%" y1="0%" x2="100%" y2="100%">
      <stop offset="0%" stop-color="#F5F1E8"/>
      <stop offset="50%" stop-color="#EDE8DC"/>
      <stop offset="100%" stop-color="#E5DDD0"/>
    </linearGradient>
    <pattern id="dotsSPL" x="0" y="0" width="30" height="30" patternUnits="userSpaceOnUse">
      <circle cx="2" cy="2" r="1" fill="#2C2C2C" opacity="0.06"/>
    </pattern>
  </defs>

  <!-- Background -->
  <rect width="1200" height="630" fill="#F5F1E8"/>
  <rect width="1200" height="630" fill="url(#bgSPL)"/>
  <rect width="1200" height="630" fill="url(#dotsSPL)"/>

  <!-- Top accent bar + left vertical bar -->
  <rect x="0" y="0" width="1200" height="6" fill="#B85C3C"/>
  <rect x="40" y="60" width="6" height="510" fill="#5C3A6B"/>

  <!-- Eyebrow tag -->
  <rect x="80" y="70" width="240" height="24" fill="#2C2C2C"/>
  <text x="200" y="87" font-family="Arial, sans-serif" font-size="12" font-weight="bold" letter-spacing="1.5" text-anchor="middle" fill="#F5F1E8">MODULE 2.7 · NEW LESSON</text>

  <!-- Title -->
  <text x="80" y="150" font-family="Georgia, serif" font-size="38" font-weight="bold" fill="#2C2C2C">Turn a finished engagement</text>
  <text x="80" y="196" font-family="Georgia, serif" font-size="38" font-weight="bold" fill="#2C2C2C">into a sellable service</text>

  <!-- Left: project folder (finished engagement) -->
  <rect x="96" y="272" width="280" height="230" fill="#E8B923" opacity="0.4"/>
  <rect x="80" y="230" width="110" height="26" fill="#B85C3C" stroke="#2C2C2C" stroke-width="3"/>
  <rect x="80" y="256" width="280" height="230" fill="#FFFFFF" stroke="#2C2C2C" stroke-width="3"/>
  <rect x="80" y="256" width="280" height="44" fill="#2C2C2C"/>
  <text x="220" y="284" font-family="Georgia, serif" font-size="16" font-weight="bold" text-anchor="middle" fill="#F5F1E8">FINISHED ENGAGEMENT</text>

  <!-- Folder contents: raw delivery files -->
  <rect x="100" y="318" width="240" height="32" fill="#FAFAFA" stroke="#2C2C2C" stroke-width="1"/>
  <rect x="108" y="328" width="12" height="12" fill="#B85C3C"/>
  <text x="130" y="338" font-family="monospace" font-size="12" fill="#2C2C2C">151 tickets resolved</text>

  <rect x="100" y="358" width="240" height="32" fill="#FAFAFA" stroke="#2C2C2C" stroke-width="1"/>
  <rect x="108" y="368" width="12" height="12" fill="#5C3A6B"/>
  <text x="130" y="378" font-family="monospace" font-size="12" fill="#2C2C2C">runbooks · scripts · SLAs</text>

  <rect x="100" y="398" width="240" height="32" fill="#FAFAFA" stroke="#2C2C2C" stroke-width="1"/>
  <rect x="108" y="408" width="12" height="12" fill="#6B8E23"/>
  <text x="130" y="418" font-family="monospace" font-size="12" fill="#2C2C2C">12 months prod support</text>

  <rect x="100" y="442" width="240" height="1" fill="#2C2C2C" opacity="0.2"/>
  <text x="220" y="466" font-family="Arial, sans-serif" font-size="12" font-style="italic" text-anchor="middle" fill="#666666">shipped · valuable · invisible</text>

  <!-- Arrow: folder to package -->
  <line x1="378" y1="371" x2="440" y2="371" stroke="#2C2C2C" stroke-width="4"/>
  <polygon points="438,361 454,371 438,381" fill="#2C2C2C"/>
  <text x="414" y="352" font-family="Arial, sans-serif" font-size="11" font-weight="bold" text-anchor="middle" fill="#B85C3C">PACKAGE</text>
  <text x="414" y="394" font-family="Arial, sans-serif" font-size="9" text-anchor="middle" fill="#666666">extract · reframe</text>

  <!-- Right panel: sellable service package -->
  <rect x="471" y="272" width="649" height="230" fill="#5C3A6B" opacity="0.35"/>
  <rect x="455" y="256" width="649" height="230" fill="#FFFFFF" stroke="#2C2C2C" stroke-width="3"/>
  <rect x="455" y="256" width="649" height="40" fill="#5C3A6B"/>
  <text x="779" y="282" font-family="Arial, sans-serif" font-size="13" font-weight="bold" letter-spacing="1.2" text-anchor="middle" fill="#F5F1E8">SELLABLE SERVICE PACKAGE · THREE ARTIFACTS</text>

  <!-- Artifact 1: service blueprint -->
  <rect x="475" y="312" width="190" height="150" fill="#FAFAFA" stroke="#2C2C2C" stroke-width="1.5"/>
  <rect x="475" y="312" width="190" height="26" fill="#B85C3C"/>
  <text x="570" y="330" font-family="Arial, sans-serif" font-size="11" font-weight="bold" text-anchor="middle" fill="#F5F1E8">SERVICE BLUEPRINT</text>
  <rect x="487" y="350" width="120" height="5" rx="2" fill="#2C2C2C" opacity="0.4"/>
  <rect x="487" y="362" width="150" height="4" rx="2" fill="#2C2C2C" opacity="0.3"/>
  <rect x="487" y="372" width="135" height="4" rx="2" fill="#2C2C2C" opacity="0.3"/>
  <rect x="487" y="390" width="48" height="28" fill="#F5F1E8" stroke="#2C2C2C" stroke-width="1"/>
  <text x="511" y="409" font-family="monospace" font-size="12" font-weight="bold" text-anchor="middle" fill="#2C2C2C">S</text>
  <rect x="541" y="390" width="48" height="28" fill="#E8B923" stroke="#2C2C2C" stroke-width="1"/>
  <text x="565" y="409" font-family="monospace" font-size="12" font-weight="bold" text-anchor="middle" fill="#2C2C2C">M</text>
  <rect x="595" y="390" width="48" height="28" fill="#F5F1E8" stroke="#2C2C2C" stroke-width="1"/>
  <text x="619" y="409" font-family="monospace" font-size="12" font-weight="bold" text-anchor="middle" fill="#2C2C2C">L</text>
  <text x="570" y="448" font-family="Arial, sans-serif" font-size="10" text-anchor="middle" fill="#666666">scope · tiers · pricing</text>

  <!-- Artifact 2: case study -->
  <rect x="685" y="312" width="190" height="150" fill="#FAFAFA" stroke="#2C2C2C" stroke-width="1.5"/>
  <rect x="685" y="312" width="190" height="26" fill="#E8B923"/>
  <text x="780" y="330" font-family="Arial, sans-serif" font-size="11" font-weight="bold" text-anchor="middle" fill="#2C2C2C">CASE STUDY</text>
  <rect x="697" y="350" width="120" height="5" rx="2" fill="#2C2C2C" opacity="0.4"/>
  <rect x="697" y="362" width="150" height="4" rx="2" fill="#2C2C2C" opacity="0.3"/>
  <rect x="697" y="372" width="135" height="4" rx="2" fill="#2C2C2C" opacity="0.3"/>
  <text x="780" y="416" font-family="Georgia, serif" font-size="24" font-weight="bold" text-anchor="middle" fill="#2C2C2C">64% → 87%</text>
  <text x="780" y="433" font-family="Arial, sans-serif" font-size="10" text-anchor="middle" fill="#666666">self-serve resolution</text>
  <text x="780" y="452" font-family="Arial, sans-serif" font-size="10" text-anchor="middle" fill="#666666">numbers · narrative</text>

  <!-- Artifact 3: landing page -->
  <rect x="895" y="312" width="190" height="150" fill="#FAFAFA" stroke="#2C2C2C" stroke-width="1.5"/>
  <rect x="895" y="312" width="190" height="26" fill="#6B8E23"/>
  <text x="990" y="330" font-family="Arial, sans-serif" font-size="11" font-weight="bold" text-anchor="middle" fill="#F5F1E8">LANDING PAGE</text>
  <rect x="907" y="346" width="166" height="34" fill="#5C3A6B"/>
  <rect x="915" y="356" width="90" height="5" rx="2" fill="#F5F1E8"/>
  <rect x="915" y="366" width="60" height="4" rx="2" fill="#F5F1E8" opacity="0.7"/>
  <rect x="907" y="390" width="150" height="4" rx="2" fill="#2C2C2C" opacity="0.3"/>
  <rect x="907" y="400" width="135" height="4" rx="2" fill="#2C2C2C" opacity="0.3"/>
  <rect x="907" y="414" width="64" height="18" fill="#B85C3C"/>
  <rect x="915" y="421" width="48" height="4" rx="2" fill="#F5F1E8"/>
  <text x="990" y="452" font-family="Arial, sans-serif" font-size="10" text-anchor="middle" fill="#666666">one offer · one CTA</text>

  <!-- Proof band -->
  <rect x="80" y="510" width="1040" height="42" fill="#2C2C2C"/>
  <rect x="96" y="521" width="70" height="20" fill="#E8B923"/>
  <text x="131" y="535" font-family="Arial, sans-serif" font-size="11" font-weight="bold" text-anchor="middle" fill="#2C2C2C">PROOF</text>
  <text x="650" y="538" font-family="Georgia, serif" font-size="20" font-weight="bold" text-anchor="middle" fill="#F5F1E8"><tspan fill="#E8B923">0</tspan> SLA BREACHES · <tspan fill="#E8B923">151</tspan> TICKETS · <tspan fill="#E8B923">64%→87%</tspan></text>

  <!-- Footer strip -->
  <rect x="80" y="570" width="1040" height="36" fill="#FFFFFF" stroke="#2C2C2C" stroke-width="2"/>
  <text x="100" y="593" font-family="Georgia, serif" font-size="14" font-weight="bold" fill="#2C2C2C">FROM DELIVERY TO PRODUCT</text>
  <text x="1100" y="593" font-family="Arial, sans-serif" font-size="12" text-anchor="end" fill="#B85C3C">CC4.MARKETING</text>

  <!-- Bottom accent -->
  <rect x="0" y="624" width="1200" height="6" fill="#2C2C2C"/>
</svg>
